<svg xmlns="http://www.w3.org/2000/svg" width="192" height="192" viewBox="0 0 192 192">
  <defs>
    <linearGradient id="bg" x1="0%" y1="0%" x2="100%" y2="100%">
      <stop offset="0%" style="stop-color:#4a90d9"/>
      <stop offset="100%" style="stop-color:#2d6fb4"/>
    </linearGradient>
    <radialGradient id="glow" cx="50%" cy="50%" r="50%">
      <stop offset="0%" style="stop-color:#7ec8e3;stop-opacity:0.3"/>
      <stop offset="100%" style="stop-color:#4a90d9;stop-opacity:0"/>
    </radialGradient>
  </defs>
  <!-- Background -->
  <rect width="192" height="192" rx="36" fill="url(#bg)"/>
  <!-- Glow -->
  <circle cx="96" cy="96" r="96" fill="url(#glow)"/>
  <!-- Stitch head -->
  <ellipse cx="96" cy="100" rx="58" ry="64" fill="#4a90d9" stroke="#7ec8e3" stroke-width="2"/>
  <!-- Left ear -->
  <path d="M45 45 L16 16 L58 26 L64 52 Z" fill="#4a90d9" stroke="#7ec8e3" stroke-width="2"/>
  <circle cx="24" cy="34" r="7" fill="#0a1628"/>
  <!-- Right ear -->
  <path d="M147 45 L176 16 L134 26 L128 52 Z" fill="#4a90d9" stroke="#7ec8e3" stroke-width="2"/>
  <circle cx="168" cy="34" r="7" fill="#0a1628"/>
  <!-- Inner ear pink -->
  <path d="M52 50 L28 26 L50 38 L56 56 Z" fill="#f472b6"/>
  <path d="M140 50 L164 26 L142 38 L136 56 Z" fill="#f472b6"/>
  <!-- Left eye -->
  <ellipse cx="76" cy="100" rx="22" ry="24" fill="#0a1628"/>
  <ellipse cx="76" cy="100" rx="14" ry="16" fill="#1a2a3e"/>
  <circle cx="76" cy="94" r="7" fill="white"/>
  <circle cx="74" cy="92" r="2" fill="white"/>
  <!-- Right eye -->
  <ellipse cx="116" cy="100" rx="22" ry="24" fill="#0a1628"/>
  <ellipse cx="116" cy="100" rx="14" ry="16" fill="#1a2a3e"/>
  <circle cx="116" cy="94" r="7" fill="white"/>
  <circle cx="114" cy="92" r="2" fill="white"/>
  <!-- Nose -->
  <ellipse cx="96" cy="130" rx="16" ry="12" fill="#2d6fb4"/>
  <!-- Mouth -->
  <path d="M72 138 Q96 158 120 138" stroke="#1a3a5a" stroke-width="3" fill="none" stroke-linecap="round"/>
  <!-- Music note -->
  <text x="148" y="60" text-anchor="middle" font-size="36" fill="#f472b6" opacity="0.8">🎵</text>
</svg>
